# xmcd
#
# Track frame offsets:
#	150
#	15023
#	30674
#	45760
#	57764
#	71961
#	86480
#	102205
#	117557
#	134054
#	147700
#	163810
#
# Disc length: 2407 seconds
#
# Revision: 0
# Processed by: cddbd v1.5.2PL0 Copyright (c) Steve Scherf et al.
# Submitted via: audiograbber 1.83.01
#
DISCID=a409650c
DTITLE=Tony Christie - Ladies' Man
DYEAR=1980
DGENRE=Pop
TTITLE0=Sweet September
TTITLE1=Devil In Me
TTITLE2=Mexico City
TTITLE3=What A Little Love Can Do
TTITLE4=Train To Yesterday
TTITLE5=Ladies' Man
TTITLE6=With Just A Piano And A Song
TTITLE7=Summer In The Sun
TTITLE8=Tobago
TTITLE9=I'm Not Chained To You
TTITLE10=I Will Remember
TTITLE11=Once More From The Top
EXTD=
EXTT0=
EXTT1=
EXTT2=
EXTT3=
EXTT4=
EXTT5=
EXTT6=
EXTT7=
EXTT8=
EXTT9=
EXTT10=
EXTT11=
PLAYORDER=
